<svg xmlns="http://www.w3.org/2000/svg" viewBox="0 0 1002.1 148.3" style="height:30px">
  <style type="text/css">
    .st0 {
      fill-rule: evenodd;
      clip-rule: evenodd
    }

    .st0, .st1 {
      fill: #1091d1
    }
  </style>
  <path class="st0" d="M220.6 85.8h20.9v2.4c.2 8 1.1 13.7 2.7 16.9 1.6 3.3 5 4.9 10.3 4.9 5.2 0 8.7-1.7 10.4-5.3 1-2.1 1.5-5.6 1.5-10.6V21.6h22.1v71.9c0 8.8-1.5 15.7-4.7 20.9-5.3 8.7-14.8 13-28.5 13-13.8 0-23-3.5-27.7-10.5-4.7-7-7-16.6-7-28.8v-2.3zm89.2 25c6.5 11.2 19 16.8 37.4 16.8s30.8-5.6 37.3-16.8c3.5-6.1 5.3-14.7 5.3-25.7V21.6h-22.5v63.5c0 7.1-.8 12.3-2.6 15.6-2.7 5.8-8.5 8.7-17.5 8.7s-14.8-2.9-17.5-8.7c-1.7-3.3-2.6-8.5-2.6-15.6V21.6h-22.5v63.5c-.1 11 1.7 19.6 5.2 25.7zm86.3-89.2h85.8v18.3h-31.7V125h-22.3V39.9h-31.8zM489 125V21.6h22.1v84.8h52.5V125zm99.7 0l7.4-21.2h39L642 125h24L628.4 21.6h-25L565.5 125h23.2zm40.2-39.1H602l13.7-40.6 13.2 40.6zM692 125V51.6l43.3 73.4h22.1V21.6h-20.6v72.2l-42.2-72.2h-23.2V125zm81.8-103.4V125h45.7c16 0 27.8-6.4 35.5-19.3 5.7-9.5 8.5-21.2 8.5-34.9 0-5.4-.7-11.1-2-17.1s-3.9-11.6-7.6-16.7c-4.6-6.4-10.6-10.7-18-13.1-4.3-1.4-9.8-2.1-16.4-2.2h-45.7zM835.9 48c3.4 5.7 5.1 13.7 5.1 24.2 0 7.6-1.1 14.2-3.4 19.7-4.1 10.1-11.4 15.1-21.8 15.1h-20.5V39.6h20.5c10 0 16.7 2.8 20.1 8.4zm36.6-26.4h22v103.3h-22zM924.9 125l7.3-21.2h39.1l6.8 21.2h24L964.6 21.6h-25L901.8 125h23.1zm40.2-39.1h-26.9l13.7-40.6 13.2 40.6z"></path>
  <path class="st1" d="M134.9 0h60.3v44.4h-60.3zm0 51.9h60.3v44.4h-60.3zm0 52h60.3v44.4h-60.3zM67 148.3h60.3v-44.4L0 74.8zM106.8 49C94 49 83.6 59.1 83.6 71.6c0 12.4 10.3 22.5 23.1 22.5s23.1-10.1 23.1-22.5c.1-12.5-10.3-22.6-23-22.6z"></path>
</svg>
